<svg width="16" height="16" viewBox="0 0 16 16" fill="none" xmlns="http://www.w3.org/2000/svg">
<path fill-rule="evenodd" clip-rule="evenodd" d="M7 1L3 5H7V1Z" fill="#9AA7B0" fill-opacity="0.8"/>
<path fill-rule="evenodd" clip-rule="evenodd" d="M8 1V6H3V15H8V11H9V10H13C13 4 13 6.46734 13 1H8Z" fill="#9AA7B0" fill-opacity="0.8"/>
<path fill-rule="evenodd" clip-rule="evenodd" d="M5 12H7V11H5V12ZM5 10H8V9H5V10ZM5 8H11V7H5V8Z" fill="#231F20" fill-opacity="0.7"/>
<path fill-rule="evenodd" clip-rule="evenodd" d="M13.4026 13.8619L14 14.2698C13.885 14.6082 13.6963 14.9151 13.4518 15.1732L12.7819 14.8856C12.5913 15.0455 12.3674 15.1703 12.1213 15.2494L12.0483 15.9455C11.8715 15.9812 11.6881 16 11.5 16C11.3119 16 11.1285 15.9812 10.9517 15.9455L10.8787 15.2494C10.6326 15.1703 10.4087 15.0455 10.2181 14.8856L9.54817 15.1732C9.30371 14.9151 9.11497 14.6082 9 14.2698L9.5974 13.8619C9.57296 13.7449 9.56014 13.6239 9.56014 13.5C9.56014 13.3761 9.57296 13.2551 9.5974 13.1381L9 12.7302C9.11497 12.3918 9.30371 12.0849 9.54817 11.8268L10.2181 12.1144C10.4087 11.9545 10.6326 11.8297 10.8787 11.7506L10.9517 11.0545C11.1285 11.0188 11.3119 11 11.5 11C11.6881 11 11.8715 11.0188 12.0483 11.0545L12.1213 11.7506C12.3674 11.8297 12.5913 11.9545 12.7819 12.1144L13.4518 11.8268C13.6963 12.0849 13.885 12.3918 14 12.7302L13.4026 13.1381C13.427 13.2551 13.4399 13.3761 13.4399 13.5C13.4399 13.6239 13.427 13.7449 13.4026 13.8619ZM11.5 14.3848C12.0134 14.3848 12.4295 13.9887 12.4295 13.5001C12.4295 13.0115 12.0134 12.6154 11.5 12.6154C10.9866 12.6154 10.5705 13.0115 10.5705 13.5001C10.5705 13.9887 10.9866 14.3848 11.5 14.3848Z" fill="#B99BF8"/>
</svg>
